<svg width="183" height="182" viewBox="0 0 183 182" fill="none" xmlns="http://www.w3.org/2000/svg">
<path d="M111.262 83.9509L111.277 83.5535L181.813 120.67L179.768 119.994L111.262 83.9509Z" fill="#121A21"/>
<path d="M3.2604 140.592L1.21524 141.268L111.277 83.5537L111.262 83.9511L3.2604 140.592Z" fill="#121920"/>
<path d="M111.262 83.9509L179.767 119.994L71.7513 177.232L3.26027 140.592L111.262 83.9509Z" fill="#121920"/>
<path d="M71.7514 177.232L71.7368 179.007L1.21524 141.268L3.2604 140.592L71.7514 177.232Z" fill="#121920"/>
<path d="M181.812 120.67L181.798 123.624L71.7512 181.974L71.7367 179.007L181.812 120.67Z" fill="#11181F"/>
<path d="M71.7368 179.007L71.7514 181.974L1.22975 144.235L1.21524 141.268L71.7368 179.007Z" fill="#11181F"/>
<path d="M179.767 119.994L181.812 120.67L71.7367 179.006L71.7512 177.231L179.767 119.994Z" fill="#121920"/>
<path d="M49.4136 143.03L52.503 141.414L55.5635 143.03L52.474 144.66L49.4136 143.03ZM55.0414 143.03L52.4885 141.705L49.9067 143.03L52.474 144.355L55.0414 143.03Z" fill="#00ADE0"/>
<path d="M52.4306 141.453L55.5201 139.824L58.5951 141.453L55.5056 143.083L52.4306 141.453ZM58.0729 141.453L55.5201 140.129L52.9528 141.453L55.5056 142.778L58.0729 141.453Z" fill="#00ADE0"/>
<path d="M55.3314 140.128L58.4209 138.499L61.4959 140.128L58.4064 141.758L55.3314 140.128ZM60.9737 140.128L58.4209 138.803L55.8536 140.128L58.4064 141.453L60.9737 140.128Z" fill="#00ADE0"/>
<path d="M49.5298 140.128L52.6048 138.499L55.6799 140.128L52.6048 141.758L49.5298 140.128ZM55.1722 140.128L52.6048 138.803L50.0375 140.128L52.5903 141.453L55.1722 140.128Z" fill="#00ADE0"/>
<path d="M9.29363 145.123H8.91655V146.448H9.29363V145.123Z" fill="#00C5FF"/>
<path d="M10.744 146.447H10.3669V147.773H10.744V146.447Z" fill="#00C5FF"/>
<path d="M7.84316 143.798H7.46608V145.124H7.84316V143.798Z" fill="#00C5FF"/>
<path fill-rule="evenodd" clip-rule="evenodd" d="M109.97 0.294189L110.434 1.17996L1.16424 58.4354L1.5387 142.149L71.4941 180.294L98.8164 166.019L98.8174 166.019L153.935 137.38L153.936 137.379L181.777 123.018H182V123.715L182.128 123.962L154.396 138.267L154.395 138.268L99.2795 166.906L99.2785 166.906L71.4841 181.428L0.541353 142.744L0.16153 57.8318L109.97 0.294189Z" fill="#00C5FF"/>
</svg>
